<?xml version="1.0" standalone="no"?>
<!DOCTYPE svg PUBLIC "-//W3C//DTD SVG 20010904//EN"
 "http://www.w3.org/TR/2001/REC-SVG-20010904/DTD/svg10.dtd">
<svg version="1.0" xmlns="http://www.w3.org/2000/svg"
 width="551.000000pt" height="453.000000pt" viewBox="0 0 551.000000 453.000000"
 preserveAspectRatio="xMidYMid meet">

<g transform="translate(0.000000,453.000000) scale(0.100000,-0.100000)"
fill="#000000" stroke="none">
<path d="M2670 3700 c-101 -12 -147 -28 -251 -82 -76 -39 -115 -69 -190 -141
l-94 -92 93 -3 93 -3 43 38 c55 49 191 118 276 140 91 24 273 24 360 -1 90
-26 229 -98 270 -141 l34 -35 93 0 c51 0 93 4 93 8 0 19 -76 95 -151 151 -94
71 -199 124 -289 146 -78 18 -290 27 -380 15z"/>
<path d="M1940 3304 c-103 -12 -243 -71 -318 -133 -82 -69 -170 -225 -192
-342 -15 -78 -12 -227 6 -294 43 -166 149 -304 290 -378 96 -49 172 -68 279
-68 102 0 184 18 258 59 57 31 172 130 172 148 0 7 -38 46 -85 87 l-84 75 -44
-39 c-128 -112 -330 -106 -438 14 -76 84 -89 122 -89 262 0 103 3 127 22 168
57 122 156 189 282 191 60 0 79 -5 143 -36 40 -20 84 -48 97 -62 l24 -25 33
27 c18 15 58 47 88 71 31 24 56 49 56 55 0 20 -113 123 -171 155 -31 17 -78
38 -105 45 -54 16 -169 26 -224 20z"/>
<path d="M2530 2700 l0 -600 343 0 c314 0 348 2 416 20 94 27 150 59 197 117
65 79 86 172 60 273 -23 88 -81 165 -150 195 l-51 23 30 12 c142 55 180 321
63 446 -36 38 -144 90 -217 104 -30 5 -197 10 -372 10 l-319 0 0 -600z m645
356 c51 -22 68 -55 63 -123 -8 -96 -54 -115 -283 -117 l-150 -1 -3 128 -3 127
171 0 c125 0 180 -4 205 -14z m72 -499 c34 -33 38 -43 38 -86 0 -57 -23 -95
-76 -126 -31 -18 -53 -20 -219 -20 l-185 0 -3 138 -3 138 206 -3 205 -3 37
-38z"/>
<path d="M3720 2700 l0 -600 140 0 140 0 0 600 0 600 -140 0 -140 0 0 -600z"/>
<path d="M877 1780 c-81 -24 -124 -157 -74 -230 35 -53 67 -71 124 -72 52 0
79 10 107 38 21 21 20 31 -4 44 -16 9 -26 7 -47 -9 -93 -74 -198 65 -114 150
35 35 81 39 111 9 24 -24 39 -25 65 -6 18 13 18 14 -7 39 -24 24 -85 48 -118
46 -8 0 -27 -4 -43 -9z"/>
<path d="M2273 1771 c-94 -44 -119 -170 -48 -245 57 -61 150 -67 207 -14 l32
30 -27 15 c-24 12 -29 12 -43 -2 -43 -42 -111 -29 -132 27 -39 101 45 188 122
127 23 -18 31 -20 52 -10 20 9 23 14 15 30 -28 52 -113 72 -178 42z"/>
<path d="M4385 1781 c-79 -19 -115 -66 -115 -149 0 -86 42 -141 119 -156 84
-16 159 41 169 129 l5 45 -72 0 -71 0 0 -30 c0 -19 4 -28 13 -25 6 3 25 1 42
-3 l30 -8 -27 -27 c-33 -33 -81 -36 -118 -7 -21 16 -25 27 -25 75 0 50 3 60
28 81 36 31 79 31 109 0 21 -22 26 -23 52 -13 l29 12 -27 32 c-22 26 -83 56
-106 52 -3 -1 -18 -4 -35 -8z"/>
<path d="M1110 1630 l0 -150 30 0 30 0 0 60 0 61 63 -3 62 -3 3 -57 c3 -54 5
-58 27 -58 l25 0 0 150 0 150 -25 0 c-22 0 -24 -4 -27 -57 l-3 -58 -62 -3 -63
-3 0 61 0 60 -30 0 -30 0 0 -150z"/>
<path d="M1420 1630 l0 -150 100 0 c100 0 100 0 100 25 0 23 -3 24 -67 27
l-68 3 -3 33 -3 32 60 0 c58 0 61 1 61 25 0 22 -4 24 -57 27 l-58 3 0 35 0 35
63 3 c58 3 62 4 62 27 0 25 -1 25 -95 25 l-95 0 0 -150z"/>
<path d="M1680 1631 l0 -151 30 0 30 0 1 103 1 102 35 -72 c29 -60 39 -73 59
-73 19 0 29 13 58 73 l34 72 1 -102 1 -103 30 0 30 0 0 150 0 150 -39 0 -38 0
-38 -85 c-21 -47 -41 -82 -44 -79 -3 3 -20 40 -36 82 l-31 77 -42 3 -42 3 0
-150z"/>
<path d="M2060 1630 l0 -150 30 0 30 0 0 150 0 150 -30 0 -30 0 0 -150z"/>
<path d="M2562 1668 c-22 -62 -45 -130 -50 -150 -10 -37 -10 -38 17 -38 23 0
30 6 37 33 10 32 10 32 74 32 64 0 64 0 74 -32 7 -28 14 -33 39 -33 19 0 28 4
24 13 -2 6 -10 30 -17 52 -7 22 -29 84 -48 138 l-34 97 -38 0 -37 0 -41 -112z
m102 -14 c9 -26 13 -50 10 -55 -6 -11 -74 -12 -74 -1 0 16 34 102 41 102 4 0
14 -21 23 -46z"/>
<path d="M2830 1630 l0 -150 100 0 100 0 0 25 c0 24 -2 25 -65 25 l-65 0 0
125 0 125 -35 0 -35 0 0 -150z"/>
<path d="M3220 1630 l0 -150 81 0 c80 0 113 9 136 39 19 24 15 65 -8 95 -19
24 -19 27 -5 42 19 18 20 62 3 85 -22 29 -55 39 -131 39 l-76 0 0 -150z m153
79 c19 -31 1 -49 -48 -49 -45 0 -45 0 -45 36 0 35 0 35 41 32 25 -2 46 -10 52
-19z m-9 -109 c28 -10 34 -38 14 -58 -7 -7 -31 -12 -55 -12 l-43 0 0 40 c0 38
2 40 29 40 16 0 41 -4 55 -10z"/>
<path d="M3520 1630 l0 -150 30 0 c29 0 30 1 30 50 0 45 2 50 23 50 21 0 57
-40 73 -82 4 -12 17 -18 39 -18 l33 0 -28 52 -29 52 25 29 c35 42 33 99 -5
138 -28 27 -34 29 -110 29 l-81 0 0 -150z m150 80 c11 -11 20 -24 20 -30 0
-23 -41 -50 -75 -50 l-35 0 0 50 0 50 35 0 c22 0 43 -8 55 -20z"/>
<path d="M3810 1630 l0 -150 30 0 30 0 0 150 0 150 -30 0 -30 0 0 -150z"/>
<path d="M3950 1630 l0 -150 75 0 c130 0 185 43 185 145 0 110 -53 155 -182
155 l-78 0 0 -150z m154 86 c39 -16 59 -62 50 -114 -8 -42 -53 -72 -106 -72
l-38 0 0 100 0 100 30 0 c17 0 46 -6 64 -14z"/>
<path d="M4630 1630 l0 -150 95 0 c95 0 95 0 95 25 0 24 -2 25 -70 25 l-70 0
0 35 0 35 60 0 c57 0 60 1 60 25 0 24 -3 25 -60 25 l-60 0 0 40 0 40 70 0 c68
0 70 1 70 25 0 25 0 25 -95 25 l-95 0 0 -150z"/>
<path d="M1297 1303 c-4 -3 -7 -46 -7 -95 0 -72 3 -88 15 -88 12 0 15 17 15
95 0 87 -5 107 -23 88z"/>
<path d="M1440 1215 c0 -78 3 -95 15 -95 12 0 15 14 15 66 0 36 4 63 9 60 4
-3 26 -32 47 -65 55 -85 64 -81 64 35 0 72 -3 95 -12 92 -8 -3 -14 -27 -16
-63 l-3 -58 -45 62 c-64 88 -74 83 -74 -34z"/>
<path d="M1695 1300 c-4 -6 7 -10 24 -10 l31 0 0 -85 c0 -68 3 -85 15 -85 11
0 15 18 17 83 3 76 5 82 26 85 12 2 22 8 22 13 0 12 -127 12 -135 -1z"/>
<path d="M1940 1215 l0 -95 60 0 c47 0 60 3 60 15 0 11 -12 15 -45 15 -41 0
-45 2 -45 25 0 23 4 25 40 25 29 0 40 4 40 15 0 11 -11 15 -40 15 -38 0 -40 2
-40 30 0 29 2 30 45 30 25 0 45 5 45 10 0 6 -27 10 -60 10 l-60 0 0 -95z"/>
<path d="M2175 1298 c-3 -7 -4 -49 -3 -93 3 -67 6 -80 21 -83 14 -3 17 4 17
32 0 49 30 49 56 1 10 -19 24 -35 31 -35 17 0 16 6 -4 41 -16 26 -16 29 0 47
22 24 22 65 -1 85 -22 20 -110 23 -117 5z m98 -29 c16 -26 1 -49 -33 -49 -28
0 -30 3 -30 36 0 32 2 35 26 32 15 -2 32 -10 37 -19z"/>
<path d="M2430 1216 c0 -77 3 -96 15 -96 11 0 15 16 17 68 l3 67 44 -67 c61
-94 71 -90 71 27 0 78 -3 95 -15 95 -12 0 -15 -14 -15 -67 l0 -67 -43 65 c-24
35 -51 65 -60 67 -15 3 -17 -8 -17 -92z"/>
<path d="M2753 1293 c-3 -10 -19 -51 -35 -91 -32 -84 -32 -82 -15 -82 8 0 19
11 25 25 10 20 19 25 51 25 33 0 40 -4 45 -25 4 -16 13 -25 25 -25 18 0 16 8
-18 92 -37 93 -64 120 -78 81z m47 -85 c0 -13 -8 -18 -25 -18 -28 0 -34 25
-14 62 11 21 12 21 25 -3 7 -13 13 -32 14 -41z"/>
<path d="M2935 1300 c-4 -6 7 -10 24 -10 l31 0 0 -85 c0 -69 3 -85 15 -85 12
0 15 16 15 85 0 84 0 85 25 85 14 0 25 5 25 10 0 6 -28 10 -64 10 -36 0 -68
-4 -71 -10z"/>
<path d="M3180 1215 c0 -78 3 -95 15 -95 12 0 15 17 15 95 0 78 -3 95 -15 95
-12 0 -15 -17 -15 -95z"/>
<path d="M3354 1298 c-51 -24 -59 -105 -15 -149 29 -29 76 -38 116 -23 21 8
45 56 45 89 0 33 -24 81 -45 89 -24 9 -77 6 -101 -6z m85 -18 c29 -15 45 -64
30 -92 -16 -31 -28 -38 -65 -38 -36 0 -51 14 -60 58 -5 25 -1 36 19 56 28 28
47 32 76 16z"/>
<path d="M3610 1215 c0 -78 3 -95 15 -95 12 0 15 14 15 68 l1 67 25 -30 c13
-16 34 -47 46 -67 37 -64 48 -50 48 57 0 78 -3 95 -15 95 -12 0 -15 -13 -15
-60 0 -33 -4 -60 -10 -60 -5 0 -10 6 -10 13 0 20 -70 107 -86 107 -11 0 -14
-21 -14 -95z"/>
<path d="M3933 1293 c-4 -10 -21 -53 -39 -95 -30 -72 -31 -78 -13 -78 12 0 21
9 25 25 5 21 12 25 45 25 32 0 41 -5 51 -25 10 -23 38 -35 38 -17 0 4 -16 46
-36 95 -36 85 -58 106 -71 70z m47 -90 c0 -7 -11 -13 -25 -13 -28 0 -30 6 -14
47 l11 28 13 -25 c8 -14 14 -31 15 -37z"/>
<path d="M4140 1215 l0 -95 60 0 c47 0 60 3 60 15 0 11 -12 15 -45 15 l-45 0
0 80 c0 64 -3 80 -15 80 -12 0 -15 -17 -15 -95z"/>
</g>
</svg>
